<?xml version="1.0" standalone="no"?>
<!DOCTYPE svg PUBLIC "-//W3C//DTD SVG 20010904//EN"
 "http://www.w3.org/TR/2001/REC-SVG-20010904/DTD/svg10.dtd">
<svg version="1.0" xmlns="http://www.w3.org/2000/svg"
 width="256.000000pt" height="256.000000pt" viewBox="0 0 256.000000 256.000000"
 preserveAspectRatio="xMidYMid meet">
<metadata>
Created by potrace 1.11, written by Peter Selinger 2001-2013
</metadata>
<g transform="translate(0.000000,256.000000) scale(0.100000,-0.100000)"
fill="#000000" stroke="none">
<path d="M283 2548 c20 -50 481 -1227 638 -1628 106 -272 198 -499 205 -505 6
-5 46 -99 89 -208 43 -108 81 -200 86 -203 12 -7 4 -26 304 731 141 358 261
659 266 670 5 11 58 146 119 300 61 154 114 289 119 300 25 59 76 186 126 315
32 80 66 166 76 193 l19 47 -1026 0 c-817 0 -1025 -3 -1021 -12z"/>
</g>
</svg>
